<?xml version="1.0" encoding="UTF-8"?><svg id="SYSTEMA_Logo" xmlns="http://www.w3.org/2000/svg" viewBox="0 0 212.17 44.75"><defs><style>.cls-1{fill:#00326e;}.cls-2{fill:#686a69;}.cls-3{fill:#bed2dc;}</style></defs><g id="Logo"><polygon class="cls-3" points="30.08 0 14.31 29.79 0 29.79 15.94 0 30.08 0"/><polygon class="cls-1" points="30.88 6.83 26.12 29.79 18.72 29.79 30.88 6.83"/><path class="cls-1" d="m205.83,29.62h6.33v-.05l-4.91-21.62h-7.1l-14.13,21.67h6.34l2.71-4.46h9.95l.81,4.46h0Zm-1.55-8.41h-6.8l5.22-8.59,1.57,8.59h0Zm-33.66,2.34l9.75-15.6h8.65l-4.61,21.67h-5.71l3.69-17.36h-.06l-10.55,17.36h-4.92l-3.17-17.36h-.06l-3.69,17.36h-5.7l4.61-21.67h8.65l3.12,15.6h0Zm-39.95,6.07h20.36l.88-4.13h-14.48l1.06-4.98h13.63l.84-3.94h-13.63l.95-4.49h14.35l.88-4.13h-20.24l-4.61,21.67h0Zm-15.93,0l3.73-17.54h-8.04l.88-4.13h21.97l-.88,4.13h-8.04l-3.73,17.54h-5.89Zm-6.19-15.39c.91-6.13-5.55-6.89-10.01-6.89-6.8,0-11.16,1.97-12.19,6.8-.94,4.43,2.46,5.55,6.1,6.13l5.2.82c2.26.36,3.5.82,3.14,2.49-.4,1.88-2.46,2.7-5.22,2.7-2.55,0-5.41-.52-4.84-3.49h-6.62c-1.38,6.77,5.34,7.43,10.62,7.43,8.53,0,11.95-3.25,12.81-7.28.84-3.95-1.85-5.43-5.66-6.07l-7.12-1.18c-1.47-.24-2.3-.88-2.06-2.03.31-1.46,2.12-2.55,4.55-2.55s5,.3,4.77,3.13h6.52Zm-41.23,15.39l1.61-7.56-6.59-14.11h6.92l3.61,9.44,7.62-9.44h6.92l-12.59,14.11-1.61,7.56h-5.89Zm-5.52-15.39c.91-6.13-5.55-6.89-10.01-6.89-6.8,0-11.16,1.97-12.19,6.8-.94,4.43,2.46,5.55,6.1,6.13l5.2.82c2.26.36,3.5.82,3.14,2.49-.4,1.88-2.46,2.7-5.22,2.7-2.55,0-5.41-.52-4.84-3.49h-6.62c-1.38,6.77,5.34,7.43,10.62,7.43,8.53,0,11.95-3.25,12.81-7.28.84-3.95-1.85-5.43-5.66-6.07l-7.12-1.18c-1.47-.24-2.3-.88-2.06-2.03.31-1.46,2.12-2.55,4.55-2.55s5,.3,4.77,3.13h6.52Z"/></g><path class="cls-2" d="m116.83,44.62c-.11-.47-.32-1.31-.45-1.76h-3.11c-.15.52-.33,1.25-.44,1.76h-1.29c.53-2.6,1.47-5.95,2.45-8.62h1.7c.96,2.58,1.94,5.96,2.47,8.62h-1.32Zm-.61-2.8c-.31-1.26-1-3.62-1.36-4.75h-.06c-.37,1.15-1.03,3.47-1.37,4.75h2.8Z"/><path class="cls-2" d="m123.24,39.34c-.62.1-1.74.49-2.24.77v4.51h-1.15v-6.39h1.1l.04.91c.5-.35,1.59-.88,2.26-1.01v1.21Z"/><path class="cls-2" d="m126.84,44.72c-1.4,0-1.73-.59-1.73-3.06v-2.45h-.82v-.97h.82v-1.21l1.16-.23v1.42h1.74v.98h-1.74v2.39c0,1.8.13,2.12.84,2.12.26,0,.69-.05.87-.09l.09.96c-.25.05-.87.13-1.24.13Z"/><path class="cls-2" d="m137.9,41.42c0,2.33-.69,3.33-2.68,3.33s-2.68-1-2.68-3.33.72-3.32,2.68-3.32,2.68,1.01,2.68,3.32Zm-2.68,2.29c1.16,0,1.49-.67,1.49-2.29s-.33-2.28-1.49-2.28-1.47.64-1.47,2.28.31,2.29,1.47,2.29Z"/><path class="cls-2" d="m141.28,44.62h-1.16v-5.41h-.82v-.97h.83c.03-1.84.26-2.65,1.88-2.65.38,0,.92.08,1.27.13l-.09.95c-.29-.04-.72-.08-1.05-.08-.73,0-.88.37-.88,1.64h1.81v.98h-1.8v5.41Z"/><path class="cls-2" d="m152.14,44.62c-.11-.47-.32-1.31-.45-1.76h-3.11c-.15.52-.33,1.25-.44,1.76h-1.29c.53-2.6,1.47-5.95,2.45-8.62h1.7c.96,2.58,1.94,5.96,2.47,8.62h-1.32Zm-.61-2.8c-.31-1.26-1-3.62-1.36-4.75h-.06c-.37,1.15-1.03,3.47-1.37,4.75h2.8Z"/><path class="cls-2" d="m158.93,38.23h1.16v6.39h-1.06l-.05-.5c-.62.43-1.17.63-1.74.63-1.54,0-2.13-.68-2.13-2.46v-4.06h1.16v3.89c0,1.18.28,1.58,1.37,1.58.42,0,.87-.19,1.29-.52v-4.95Z"/><path class="cls-2" d="m164.28,44.72c-1.4,0-1.73-.59-1.73-3.06v-2.45h-.82v-.97h.82v-1.21l1.16-.23v1.42h1.74v.98h-1.74v2.39c0,1.8.13,2.12.84,2.12.26,0,.69-.05.87-.09l.09.96c-.25.05-.87.13-1.24.13Z"/><path class="cls-2" d="m172.2,41.42c0,2.33-.69,3.33-2.68,3.33s-2.68-1-2.68-3.33.72-3.32,2.68-3.32,2.68,1.01,2.68,3.32Zm-2.68,2.29c1.16,0,1.49-.67,1.49-2.29s-.33-2.28-1.49-2.28-1.47.64-1.47,2.28.31,2.29,1.47,2.29Z"/><path class="cls-2" d="m175.3,44.62h-1.15v-6.39h1.07l.04.5c.5-.35,1.17-.63,1.78-.63.72,0,1.27.15,1.66.68.48-.33,1.36-.68,1.99-.68,1.63,0,2.14.77,2.14,2.47v4.05h-1.16v-3.88c0-1.17-.3-1.59-1.32-1.59-.34,0-1.06.26-1.39.52.06.18.1.6.1,1.12v3.83h-1.16v-3.88c0-1.29-.2-1.59-1.31-1.59-.33,0-.88.2-1.3.52v4.95Z"/><path class="cls-2" d="m184.64,42.21c0-.63.35-.93,1.03-1.01l2.77-.35c0-1.37-.11-1.74-1.39-1.74-.55,0-1.44.11-2.1.28l-.14-.95c.74-.18,1.69-.32,2.41-.32,2.13,0,2.38.71,2.38,3.18v3.31h-1.03l-.03-.95c-.28.78-.82,1.07-1.79,1.07-1.49,0-2.12-.72-2.12-2.53Zm1.44-.2c-.18.03-.28.15-.28.33,0,1.07.3,1.47,1.22,1.47,1.08,0,1.44-.58,1.44-2.05v-.1l-2.38.35Z"/><path class="cls-2" d="m193.7,44.72c-1.4,0-1.73-.59-1.73-3.06v-2.45h-.82v-.97h.82v-1.21l1.16-.23v1.42h1.74v.98h-1.74v2.39c0,1.8.13,2.12.84,2.12.26,0,.69-.05.87-.09l.09.96c-.25.05-.87.13-1.24.13Z"/><path class="cls-2" d="m197.08,35.97c.49,0,.67.2.67.61s-.18.59-.67.59-.67-.19-.67-.59.18-.61.67-.61Zm.58,8.65h-1.15v-6.39h1.15v6.39Z"/><path class="cls-2" d="m204.97,41.42c0,2.33-.69,3.33-2.68,3.33s-2.68-1-2.68-3.33.72-3.32,2.68-3.32,2.68,1.01,2.68,3.32Zm-2.68,2.29c1.16,0,1.49-.67,1.49-2.29s-.33-2.28-1.49-2.28-1.47.64-1.47,2.28.31,2.29,1.47,2.29Z"/><path class="cls-2" d="m208.07,44.62h-1.15v-6.39h1.07l.04.48c.58-.39,1.15-.61,1.78-.61,1.55,0,2.09.78,2.09,2.52v4h-1.16v-3.88c0-1.18-.3-1.59-1.35-1.59-.43,0-.91.2-1.32.52v4.95Z"/></svg>